<svg xmlns="http://www.w3.org/2000/svg" xmlns:xlink="http://www.w3.org/1999/xlink" version="1.1" x="0px" y="0px" viewBox="0 0 48 60" style="enable-background:new 0 0 48 48;" xml:space="preserve"><style type="text/css">
	.st0{stroke:#000000;stroke-width:0.5;stroke-miterlimit:10;}
	.st1{fill:none;stroke:#000000;stroke-width:2;stroke-miterlimit:10;}
</style><g><path d="M44,4.9H4c-2.2,0-4,1.8-4,4v17c0,2.2,1.8,4,4,4h40c2.2,0,4-1.8,4-4v-17C48,6.7,46.2,4.9,44,4.9z M4,6.9h40c1.1,0,2,0.9,2,2   V16H2V8.9C2,7.8,2.9,6.9,4,6.9z M44,27.9H4c-1.1,0-2-0.9-2-2V18h44v7.9C46,27,45.1,27.9,44,27.9z"/><path d="M40.6,19.3H7.4c-1.7,0-3,1.4-3,3s1.4,3,3,3h33.2c1.7,0,3-1.4,3-3S42.3,19.3,40.6,19.3z M40.6,23.4H7.4c-0.6,0-1-0.5-1-1   c0-0.6,0.5-1,1-1h33.2c0.6,0,1,0.5,1,1C41.6,22.9,41.2,23.4,40.6,23.4z"/><path d="M31.1,14.4c1.7,0,3-1.3,3-3s-1.3-3-3-3s-3,1.3-3,3S29.4,14.4,31.1,14.4z M31.1,10.4c0.6,0,1,0.4,1,1s-0.4,1-1,1s-1-0.4-1-1   S30.5,10.4,31.1,10.4z"/><path d="M35.7,12.4h1.8c0.6,0,1-0.4,1-1s-0.4-1-1-1h-1.8c-0.6,0-1,0.4-1,1S35.2,12.4,35.7,12.4z"/><path d="M40.3,12.4H42c0.6,0,1-0.4,1-1s-0.4-1-1-1h-1.8c-0.6,0-1,0.4-1,1S39.7,12.4,40.3,12.4z"/><path d="M18.2,33.6c0.4-0.4,0.4-1,0-1.4s-1-0.4-1.4,0c-1.7,1.7-1.7,4.4,0,6c0.9,0.9,0.9,2.3,0,3.2c-0.4,0.4-0.4,1.1,0,1.4   c0.6,0.5,1.2,0.2,1.4,0c1.7-1.7,1.7-4.4,0-6C17.3,35.9,17.3,34.5,18.2,33.6z"/><path d="M31.2,33.6c0.4-0.4,0.4-1,0-1.4s-1-0.4-1.4,0c-1.7,1.7-1.7,4.4,0,6c0.9,0.9,0.9,2.3,0,3.2c-0.4,0.4-0.4,1,0,1.4   c0.2,0.2,0.8,0.6,1.4,0c1.7-1.6,1.7-4.4,0-6C30.4,35.9,30.4,34.5,31.2,33.6z"/><path d="M24.7,33.6c0.4-0.4,0.4-1,0-1.4s-1-0.4-1.4,0c-1.7,1.7-1.7,4.4,0,6c0.9,0.9,0.9,2.3,0,3.2c-0.4,0.4-0.4,1.1,0,1.4   c0.7,0.6,1.2,0.2,1.4,0c1.7-1.7,1.7-4.4,0-6C23.8,35.9,23.8,34.5,24.7,33.6z"/></g><text x="0" y="63" fill="#000000" font-size="5px" font-weight="bold" font-family="'Helvetica Neue', Helvetica, Arial-Unicode, Arial, Sans-serif">Created by Vectors Market</text><text x="0" y="68" fill="#000000" font-size="5px" font-weight="bold" font-family="'Helvetica Neue', Helvetica, Arial-Unicode, Arial, Sans-serif">from the Noun Project</text></svg>