<svg xmlns="http://www.w3.org/2000/svg" xmlns:xlink="http://www.w3.org/1999/xlink" version="1.1" x="0px" y="0px" viewBox="0 0 48 60" style="enable-background:new 0 0 48 48;" xml:space="preserve"><path d="M47.3,42.9L41,34.8c-0.5-0.7-1.3-1.1-2.2-1.2c1-0.7,1.6-1.9,1.3-3.2c-0.3-1.4-1.6-2.3-3.1-2.3h-8.6l5.1-12  c0.3,0.3,0.6,0.7,0.7,1.2c0.1,0.2,0.6,1,1.5,0.5c0.8-0.6,3.2-0.9,4.1,1.4c0.2,0.6,0.9,0.9,1.5,0.6c0.7-0.5,3.2-1,4.1,1.5  c0.1,0.5,1.3,1.2,1.9,0c3.5-10.6-5.1-17-8.7-18.6l0.5-1.3c0.2-0.5-0.1-1.1-0.6-1.3c-0.5-0.2-1.1,0.1-1.3,0.6L36.6,2  C35,1.5,23.2-1.6,17.6,10.6c-0.2,0.3,0.1,1.8,1.4,1.2c0.6-0.5,3.1-1.1,4.1,1.4c0.2,0.6,0.9,0.9,1.5,0.6c0.5-0.3,2.9-1.3,4.1,1.5  c0.1,0.3,0.6,0.9,1.5,0.5c0.5-0.2,1-0.4,1.5-0.4l-5.4,12.8h-5.9l-2.8-2.7c-0.4-0.3-0.8-0.5-1.2-0.7c0.4-1.1,0.4-2.3-0.5-3.8  c-0.8-1.2-2-2-3.4-2.1c-2.4-0.1-4.3,1.6-4.6,3.9l-2.1-2.6c-0.6-0.8-2.3-2-4.5-0.6c-0.7,0.5-2,2.3-0.6,4.4l11.7,14.6  c0.6,0.8,1.5,1.2,2.5,1.2h22l5.4,6.9c1.9,2.1,4.1,0.9,4.5,0.6C48.8,45.6,47.8,43.6,47.3,42.9z M30.1,13.6c-2.1-3.1-5-2.2-5.5-2  c-0.9-1.5-2.4-2.3-4.1-2.3c2.2-3.8,6.5-6.1,11.3-6.1c2.2,0,9.6,0.8,13.1,8.1c1.1,2.3,1.4,4.8,1,7.2c-2.1-1.8-4.2-1.1-4.7-1  c-2.1-3.1-5-2.2-5.5-2C33.7,12.8,31.2,13.3,30.1,13.6z M16.2,26.9l3,2.9c0.2,0.2,0.4,0.3,0.7,0.3h17.3c0.6,0,1,0.4,1,1s-0.4,1-1,1  H19.1c-0.3,0-0.5-0.1-0.7-0.3l-3.6-3.5c-0.4-0.4-0.4-1,0-1.4C14.9,26.7,15.8,26.5,16.2,26.9z M17.4,33.6h-0.9l-3-3.7l3.6,3.4  C17.1,33.4,17.3,33.5,17.4,33.6z M12.2,20.9c1.3,0,2.4,1.1,2.4,2.4s-1.1,2.4-2.4,2.4s-2.4-1.1-2.4-2.4S10.9,20.9,12.2,20.9z   M12.9,29.2l-1.2-1.5c0.7,0.1,0.3,0,0.7,0C12.5,28.2,12.7,28.7,12.9,29.2z M45.5,45.8c-0.1,0.1-0.9,0.6-1.7-0.2l-5.7-7.2  c-0.2-0.2-0.5-0.4-0.8-0.4H14.9c-0.4,0-0.7-0.2-1-0.5L2.2,22.9c-0.6-0.8,0-1.4,0.2-1.6c0.7-0.5,1.5-0.1,1.7,0.2l11,13.7  c0.2,0.2,0.5,0.4,0.8,0.4h22.5c0.4,0,0.8,0.2,1,0.5l6.3,8.1C45.9,44.4,46.3,45.1,45.5,45.8z"/><text x="0" y="63" fill="#000000" font-size="5px" font-weight="bold" font-family="'Helvetica Neue', Helvetica, Arial-Unicode, Arial, Sans-serif">Created by Vectors Market</text><text x="0" y="68" fill="#000000" font-size="5px" font-weight="bold" font-family="'Helvetica Neue', Helvetica, Arial-Unicode, Arial, Sans-serif">from the Noun Project</text></svg>