<svg xmlns="http://www.w3.org/2000/svg" xmlns:xlink="http://www.w3.org/1999/xlink" version="1.1" x="0px" y="0px" viewBox="0 0 48 60" style="enable-background:new 0 0 48 48;" xml:space="preserve"><g><path d="M39.8,15.9V4.8c0-1.6-1-3.1-2.5-3.8c-3-1.4-23.2-1.3-26.4,0.1C9.3,1.8,8.3,3.2,8.3,4.9v11L3.5,34.2c0,0.3,0,8.6,0,8.6   c0,0.6,0.4,1,1,1h2.7V47c0,0.6,0.4,1,1,1s1-0.4,1-1v-3.2h29.7V47c0,0.6,0.4,1,1,1s1-0.4,1-1v-3.2h2.7c0.6,0,1-0.4,1-1v-8.3   C44.5,34.4,39.8,16,39.8,15.9z M10.3,4.9c0-0.8,0.5-1.6,1.3-2c2.6-1.2,22.3-1.2,24.7-0.1c0.8,0.4,1.4,1.1,1.4,2v0.3H10.3V4.9z    M10.3,7.1h27.4v7.8h-1.3c-0.4-1.8-2-3.2-4-3.2h-4c-1.9,0-3.6,1.4-4,3.2h-0.9c-0.4-1.8-2-3.2-4-3.2h-4c-1.9,0-3.6,1.4-4,3.2h-1.3   V7.1z M34.5,15.8c0,1.2-0.9,2.1-2.1,2.1h-4c-1.2,0-2.1-0.9-2.1-2.1c0-1.1,0.9-2.1,2.1-2.1h4C33.6,13.8,34.5,14.7,34.5,15.8z    M21.7,15.8c0,1.2-0.9,2.1-2.1,2.1h-4c-1.2,0-2.1-0.9-2.1-2.1c0-1.1,0.9-2.1,2.1-2.1h4C20.7,13.8,21.7,14.7,21.7,15.8z M10.1,16.9   h1.6c0.5,1.7,2,3,3.9,3h4c1.9,0,3.4-1.3,3.9-3h1c0.5,1.7,2,3,3.9,3h4c1.9,0,3.4-1.3,3.9-3h1.6l4.3,16.5H5.8L10.1,16.9z M42.5,41.8   h-37v-6.3h37V41.8z"/></g><text x="0" y="63" fill="#000000" font-size="5px" font-weight="bold" font-family="'Helvetica Neue', Helvetica, Arial-Unicode, Arial, Sans-serif">Created by Vectors Market</text><text x="0" y="68" fill="#000000" font-size="5px" font-weight="bold" font-family="'Helvetica Neue', Helvetica, Arial-Unicode, Arial, Sans-serif">from the Noun Project</text></svg>