<svg xmlns="http://www.w3.org/2000/svg" xmlns:xlink="http://www.w3.org/1999/xlink" version="1.1" x="0px" y="0px" viewBox="0 0 48 60" style="enable-background:new 0 0 48 48;" xml:space="preserve"><g><path d="M22.1,17.9c-0.4-0.4-1-0.4-1.4,0L18,20.6c-0.4,0.4-0.4,1,0,1.4l2.7,2.7c0.4,0.4,1,0.4,1.4,0l2.7-2.7c0.4-0.4,0.4-1,0-1.4   L22.1,17.9z M21.4,22.6l-1.3-1.3l1.3-1.3l1.3,1.3L21.4,22.6z"/><path d="M20.5,17c0.4-0.4,0.4-1,0-1.4l-2.7-2.7c-0.4-0.4-1-0.4-1.4,0l-2.7,2.7c-0.4,0.4-0.4,1,0,1.4l2.7,2.7c0.4,0.4,1,0.4,1.4,0   L20.5,17z M15.8,16.3l1.3-1.3l1.3,1.3l-1.3,1.3L15.8,16.3z"/><path d="M42.8,0l-8.3,1.5c-0.3,0.1-0.6,0.3-0.7,0.6l-3.7,8.3H5c-0.9,0-1.3,1.1-0.7,1.7l16.3,17.2V46h-4.7c-0.6,0-1,0.4-1,1   s0.4,1,1,1h11.4c0.6,0,1-0.4,1-1s-0.4-1-1-1h-4.7V29.3l16.3-17.2c0.6-0.6,0.2-1.7-0.7-1.7h-5.9l3.2-7L43.2,2   c0.5-0.1,0.9-0.6,0.8-1.2C43.9,0.3,43.4-0.1,42.8,0z M35.9,12.4l-14.3,15l-14.3-15h21.8L28.5,14c0,0,0,0.1,0,0.1l-1.2-1.2   c-0.4-0.4-1-0.4-1.4,0l-2.7,2.7c-0.4,0.4-0.4,1,0,1.4l2.7,2.7c0.4,0.4,1,0.4,1.4,0L30,17c0.4-0.4,0.4-1,0-1.4l-0.3-0.3   c0.2-0.1,0.5-0.3,0.6-0.5l1.1-2.4H35.9z M27.9,16.3l-1.3,1.3l-1.3-1.3l1.3-1.3L27.9,16.3z"/></g><text x="0" y="63" fill="#000000" font-size="5px" font-weight="bold" font-family="'Helvetica Neue', Helvetica, Arial-Unicode, Arial, Sans-serif">Created by Vectors Market</text><text x="0" y="68" fill="#000000" font-size="5px" font-weight="bold" font-family="'Helvetica Neue', Helvetica, Arial-Unicode, Arial, Sans-serif">from the Noun Project</text></svg>