<svg xmlns="http://www.w3.org/2000/svg" xmlns:xlink="http://www.w3.org/1999/xlink" version="1.1" x="0px" y="0px" viewBox="0 0 48 60" style="enable-background:new 0 0 48 48;" xml:space="preserve"><style type="text/css">
	.st0{stroke:#000000;stroke-width:0.5;stroke-miterlimit:10;}
	.st1{fill:none;stroke:#000000;stroke-width:2;stroke-miterlimit:10;}
</style><g><path d="M40.2,24.1H38c-0.1-2.8-2.4-5-5.1-5H8.8c-2.8,0-5.2,2.3-5.2,5.2v9.9c0,4.4,1.7,8.6,4.7,11.8H3.4c-0.6,0-1,0.4-1,1   s0.4,1,1,1h34.8c0.6,0,1-0.4,1-1s-0.4-1-1-1h-4.9c2.9-3,4.5-6.9,4.7-11.1h2.2c1.4,0,5.1-0.9,5.4-5.4C45.6,26.5,43.2,24.1,40.2,24.1   z M36,34.2c0,4.6-2,8.9-5.6,11.8H11.2c-3.6-2.9-5.6-7.2-5.6-11.8v-9.9c0-1.7,1.4-3.2,3.2-3.2h24.1c1.7,0,3.2,1.4,3.2,3.2V34.2z    M40.2,32.9H38v-6.8h2.2c1.9,0,3.4,1.5,3.4,3.4C43.4,32.3,41.1,32.9,40.2,32.9z"/><path d="M12.2,15.7c-0.4,0.4-0.4,1,0,1.4c0.2,0.2,0.9,0.6,1.4,0c2.7-3,0.9-6.1,0-7c-1.1-1.1-1.1-3,0-4.2c0.4-0.4,0.4-1,0-1.4   s-1-0.4-1.4,0c-1.9,1.9-1.9,5.1,0,7C12.8,12.1,13.8,13.9,12.2,15.7z"/><path d="M28,15.7c-0.4,0.4-0.4,1,0,1.4c0.2,0.2,0.9,0.6,1.4,0c1.8-2,1.9-5.1,0-7c-1.1-1.1-1.1-3,0-4.2c0.4-0.4,0.4-1,0-1.4   s-1-0.4-1.4,0c-1.9,1.9-1.9,5.1,0,7C29.2,12.7,29.2,14.6,28,15.7z"/><path d="M20.1,15.7c-0.4,0.4-0.4,1,0,1.4c0.2,0.2,0.8,0.6,1.4,0c2.6-2.4,2.3-6.4,0-9.1c-2.4-2.9-0.8-5.4,0-6.3c0.4-0.4,0.4-1,0-1.4   s-1-0.4-1.4,0c-1.2,1.2-3.6,5.2,0,9.1C21.8,11.2,21.8,14,20.1,15.7z"/></g><text x="0" y="63" fill="#000000" font-size="5px" font-weight="bold" font-family="'Helvetica Neue', Helvetica, Arial-Unicode, Arial, Sans-serif">Created by Vectors Market</text><text x="0" y="68" fill="#000000" font-size="5px" font-weight="bold" font-family="'Helvetica Neue', Helvetica, Arial-Unicode, Arial, Sans-serif">from the Noun Project</text></svg>