<svg xmlns="http://www.w3.org/2000/svg" xmlns:xlink="http://www.w3.org/1999/xlink" version="1.1" x="0px" y="0px" viewBox="0 0 48 60" style="enable-background:new 0 0 48 48;" xml:space="preserve"><path d="M47,16.1c-0.6,0-1,0.4-1,1V24h-8.5v-2.8c0-1.9-1-3.5-2.4-4.5c1-0.8,1.6-2.1,1.6-3.4c0-2.5-2-4.5-4.5-4.5  c-2.5,0-4.5,2-4.5,4.5c0,1.4,0.6,2.6,1.6,3.4c-1.5,1-2.4,2.6-2.4,4.5V24h-5.5v-2.8c0-1.9-1-3.5-2.4-4.5c1-0.8,1.6-2.1,1.6-3.4  c0-2.5-2-4.5-4.5-4.5c-2.5,0-4.5,2-4.5,4.5c0,1.4,0.6,2.6,1.6,3.4c-1.5,1-2.4,2.6-2.4,4.5V24H2V6.5c0-0.6-0.4-1-1-1s-1,0.4-1,1  c0,13.2,0,22.3,0,35c0,0.6,0.4,1,1,1s1-0.4,1-1v-5.8h44v5.8c0,0.6,0.4,1,1,1s1-0.4,1-1c0-2.9,0-21.7,0-24.4  C48,16.5,47.6,16.1,47,16.1z M29.6,13.3c0-1.4,1.1-2.5,2.5-2.5s2.5,1.1,2.5,2.5s-1.1,2.5-2.5,2.5S29.6,14.7,29.6,13.3z M28.8,21.2  c0-1.9,1.5-3.4,3.4-3.4s3.4,1.5,3.4,3.4v2.7h-6.8V21.2z M13.3,13.3c0-1.4,1.1-2.5,2.5-2.5s2.5,1.1,2.5,2.5s-1.1,2.5-2.5,2.5  S13.3,14.7,13.3,13.3z M12.5,21.2c0-1.9,1.5-3.4,3.4-3.4s3.4,1.5,3.4,3.4v2.7h-6.8V21.2z M2,33.7V26h44v7.7H2z"/><text x="0" y="63" fill="#000000" font-size="5px" font-weight="bold" font-family="'Helvetica Neue', Helvetica, Arial-Unicode, Arial, Sans-serif">Created by Vectors Market</text><text x="0" y="68" fill="#000000" font-size="5px" font-weight="bold" font-family="'Helvetica Neue', Helvetica, Arial-Unicode, Arial, Sans-serif">from the Noun Project</text></svg>