<svg xmlns="http://www.w3.org/2000/svg" xmlns:xlink="http://www.w3.org/1999/xlink" version="1.1" x="0px" y="0px" viewBox="0 0 48 60" style="enable-background:new 0 0 48 48;" xml:space="preserve"><style type="text/css">
	.st0{stroke:#000000;stroke-width:0.5;stroke-miterlimit:10;}
	.st1{fill:none;stroke:#000000;stroke-width:2;stroke-miterlimit:10;}
</style><g><path d="M24.9,24.2c0.4-0.7,0.7-1.4,0.7-2.3c0-2.4-1.9-4.3-4.3-4.3s-4.3,1.9-4.3,4.3c0,0.8,0.3,1.6,0.7,2.3c-1.8,0.4-3.1,2-3.1,3.9   v5.1c0,1.7,1.1,3.2,2.6,3.7v3.4c0,1.5,1.2,2.7,2.7,2.7h3.1c1.5,0,2.7-1.2,2.7-2.7V37C27,36.4,28,35,28,33.3v-5.1   C28,26.2,26.7,24.7,24.9,24.2z M21.2,19.6c1.3,0,2.3,1,2.3,2.3c0,1.3-1,2.3-2.3,2.3s-2.3-1-2.3-2.3C18.9,20.7,19.9,19.6,21.2,19.6z    M26,33.3c0,1-0.7,1.9-1.7,2c-0.5,0.1-0.9,0.5-0.9,1v4.2c0,0.4-0.3,0.7-0.7,0.7h-3.1c-0.4,0-0.7-0.3-0.7-0.7v-4.2   c0-0.5-0.4-0.9-0.9-1c-1-0.1-1.7-1-1.7-2v-5.1c0-1.1,0.9-2,2-2H24c1.1,0,2,0.9,2,2V33.3z"/><path d="M47.8,30.9c-1.7-2.4-2.6-5.1-2.6-8v-3.9c0-2.3-1.1-4.4-3.1-5.6c0.9-0.9,1.5-2.1,1.5-3.5c0-2.7-2.2-4.9-4.9-4.9   s-4.9,2.2-4.9,4.9c0,1.4,0.6,2.7,1.5,3.5c-1.9,1.2-3.2,3.4-3.2,5.8v3.7c0,2.9-0.9,5.7-2.6,8c-0.5,0.7,0,1.6,0.8,1.6h4.5v8.5   c0,1.2,1,2.2,2.2,2.2h3.4c1.2,0,2.2-1,2.2-2.2v-8.5H47C47.8,32.4,48.3,31.5,47.8,30.9z M38.6,6.8c1.6,0,2.9,1.3,2.9,2.9   c0,1.6-1.3,2.9-2.9,2.9s-2.9-1.3-2.9-2.9C35.7,8.2,37,6.8,38.6,6.8z M40.5,40.9c0,0.1-0.1,0.2-0.2,0.2h-3.4c-0.1,0-0.2-0.1-0.2-0.2   V28.8c0-1.1,0.9-1.9,1.9-1.9c1.1,0,1.9,0.9,1.9,1.9V40.9z M42.5,30.4v-1.6c0-2.2-1.8-3.9-3.9-3.9s-3.9,1.8-3.9,3.9v1.6h-2.7   c1.3-2.3,2-4.9,2-7.6v-3.7c0-2.1,1.4-4,3.3-4.6c0.9,0.2,1.6,0.2,2.5,0c2,0.6,3.3,2.4,3.3,4.4v3.9c0,2.7,0.7,5.3,2,7.6H42.5z"/><path d="M9.8,14.1c1.3-1.4,2.2-3.4,2.2-5c0-2.5-2.2-4.3-5.4-4.3S1.2,6.6,1.2,9.1c0,1.6,0.9,3.6,2.2,5C1.4,15.3,0,17.6,0,20v11.4   c0,1.8,1.4,3.2,3.2,3.2h0.1v6.6c0,1.1,0.9,1.9,1.9,1.9h2.6c1.1,0,1.9-0.9,1.9-1.9v-6.6H10c1.8,0,3.2-1.4,3.2-3.2V19.8   C13.2,17.3,11.8,15.2,9.8,14.1z M6.6,6.8c1.6,0,3.4,0.6,3.4,2.3c0,1.7-1.7,4.5-3.4,4.5s-3.4-2.8-3.4-4.5C3.2,7.4,5,6.8,6.6,6.8z    M7.8,41.2l-2.5,0.1v-11c0-0.7,0.6-1.3,1.3-1.3c0,0,1.1,0,1.3,1.4V41.2z M11.2,31.4c0,0.7-0.5,1.2-1.2,1.2H9.8v-2.3   c0-1.7-1.3-3.2-2.9-3.4c-2-0.2-3.6,1.3-3.6,3.2v2.4H3.2c-0.7,0-1.2-0.5-1.2-1.2V20c0-2.1,1.4-4.1,3.4-4.6l2.4,0   c2,0.6,3.4,2.4,3.4,4.4V31.4z"/></g><text x="0" y="63" fill="#000000" font-size="5px" font-weight="bold" font-family="'Helvetica Neue', Helvetica, Arial-Unicode, Arial, Sans-serif">Created by Vectors Market</text><text x="0" y="68" fill="#000000" font-size="5px" font-weight="bold" font-family="'Helvetica Neue', Helvetica, Arial-Unicode, Arial, Sans-serif">from the Noun Project</text></svg>