<svg xmlns="http://www.w3.org/2000/svg" xmlns:xlink="http://www.w3.org/1999/xlink" version="1.1" x="0px" y="0px" viewBox="0 0 1580 1975" style="enable-background:new 0 0 1580 1580;" xml:space="preserve"><g><g><g><path d="M316.8,1302.3H216c-13.3,0-24-10.7-24-24V823.8c0-13.3,10.7-24,24-24h100.8c13.3,0,24,10.7,24,24v454.5     C340.8,1291.6,330,1302.3,316.8,1302.3z M240,1254.3h52.8V847.8H240V1254.3z"/></g><g><path d="M359.7,847.8H173c-13.3,0-24-10.7-24-24V715.9c0-13.3,10.7-24,24-24h186.8c13.3,0,24,10.7,24,24v107.9     C383.7,837,373,847.8,359.7,847.8z M197,799.8h138.8v-59.9H197V799.8z"/></g><g><path d="M426.7,739.9H106c-46.3,0-84-37.7-84-84V361.7c0-46.3,37.7-84,84-84h320.7c46.3,0,84,37.7,84,84v294.2     C510.7,702.2,473,739.9,426.7,739.9z M106,325.7c-19.9,0-36,16.1-36,36v294.2c0,19.9,16.1,36,36,36h320.7c19.9,0,36-16.1,36-36     V361.7c0-19.9-16.1-36-36-36H106z"/></g><g><path d="M220.4,641c-13.3,0-24-10.7-24-24V400.6c0-13.3,10.7-24,24-24s24,10.7,24,24V617C244.4,630.2,233.7,641,220.4,641z"/><path d="M289.3,542.4h-68.9c-13.3,0-24-10.7-24-24V400.6c0-13.3,10.7-24,24-24h68.9c43.1,0,78.2,35.1,78.2,78.2v9.3     C367.6,507.3,332.5,542.4,289.3,542.4z M244.4,494.4h44.9c16.7,0,30.2-13.6,30.2-30.2v-9.3c0-16.7-13.6-30.2-30.2-30.2h-44.9     V494.4z"/></g></g><g><path d="M1289.2,878.5h-551c-27.7,0-54.6-5.6-80-16.8l-95-41.7c-12.1-5.3-17.7-19.5-12.3-31.6c5.3-12.1,19.5-17.7,31.6-12.3    l95,41.7c19.3,8.4,39.7,12.7,60.7,12.7h551c21,0,41.5-4.3,60.7-12.7l95-41.7c12.1-5.3,26.3,0.2,31.6,12.3    c5.3,12.1-0.2,26.3-12.3,31.6l-95,41.7C1343.8,872.8,1316.9,878.5,1289.2,878.5z"/><path d="M1478.1,1194.3H549.3c-44.1,0-79.9-35.9-79.9-79.9V933.3c0-24,7.9-47.7,22.3-66.9l0,0l178.1-237.7    c18.5-24.6,42.8-44.9,70.3-58.7s58.3-21,89.1-21h369.1c30.8,0,61.6,7.3,89.1,21c27.5,13.8,51.8,34.1,70.3,58.7l178.1,237.7    c14.4,19.2,22.3,42.9,22.3,66.9v181.1C1558,1158.4,1522.1,1194.3,1478.1,1194.3z M530.1,895.1c-8.2,10.9-12.7,24.5-12.7,38.1    v181.1c0,17.6,14.3,31.9,31.9,31.9H1478c17.6,0,31.9-14.3,31.9-31.9V933.2c0-13.7-4.5-27.2-12.7-38.1l-178.1-237.7    c-28.4-37.9-73.6-60.5-121-60.5H829c-47.4,0-92.6,22.6-121,60.5L530.1,895.1L530.1,895.1z"/><path d="M1160.4,1083.6H867c-22.1,0-41.9-14.9-48-36.2l-12.2-42.6c-4.4-15.2-1.4-31.2,8.1-43.8c9.5-12.6,24-19.9,39.8-19.9h317.7    c15.8,0,30.3,7.2,39.8,19.9c9.5,12.6,12.5,28.6,8.1,43.8l-12.2,42.6C1202.2,1068.7,1182.5,1083.6,1160.4,1083.6z M854.9,989.2    c-0.3,0-0.9,0-1.5,0.8s-0.4,1.4-0.3,1.7l12.2,42.6c0.2,0.8,1,1.4,1.8,1.4h293.3c0.8,0,1.6-0.6,1.8-1.4l12.2-42.6    c0.1-0.3,0.3-0.9-0.3-1.7s-1.2-0.8-1.5-0.8H854.9z"/><path d="M1405.2,1079.4c-1,0-2.1,0-3.1-0.1l0,0l-72.7-3.6c-33.8-1.7-60.2-29.5-60.2-63.3s26.4-61.6,60.2-63.3l72.7-3.6    c17.3-0.8,34.3,5.5,46.8,17.4s19.7,28.6,19.7,45.9v7.2c0,17.3-7.2,34-19.7,45.9C1437.1,1073.1,1421.4,1079.4,1405.2,1079.4z     M1404.5,1031.3c4.2,0.2,8.3-1.3,11.4-4.2c3.1-2.9,4.8-6.9,4.8-11.1v-7.2c0-4.2-1.7-8.2-4.8-11.1c-3.1-2.9-7.1-4.4-11.4-4.2    l-72.7,3.6c-8.2,0.4-14.6,7.1-14.6,15.3s6.4,14.9,14.6,15.3L1404.5,1031.3z"/><path d="M622.2,1079.4c-16.2,0-32-6.3-43.7-17.5c-12.5-11.9-19.7-28.6-19.7-45.9v-7.2c0-17.3,7.2-34,19.7-45.9    s29.6-18.2,46.8-17.4l72.7,3.6c33.8,1.7,60.2,29.5,60.2,63.3s-26.4,61.6-60.2,63.3l-72.7,3.6    C624.3,1079.3,623.2,1079.4,622.2,1079.4z M624.1,1055.3L624.1,1055.3L624.1,1055.3z M622.1,993.4c-4,0-7.7,1.5-10.6,4.2    c-3.1,2.9-4.8,6.9-4.8,11.1v7.2c0,4.2,1.7,8.2,4.8,11.1s7.1,4.4,11.4,4.2l72.7-3.6c8.2-0.4,14.6-7.1,14.6-15.3    c0-8.2-6.4-14.9-14.6-15.3l-72.7-3.6C622.7,993.4,622.4,993.4,622.1,993.4z"/><g><path d="M651.6,1302.3h-22.3c-44.6,0-80.8-36.3-80.8-80.8v-51.2c0-13.3,10.7-24,24-24h135.9c13.3,0,24,10.7,24,24v51.2     C732.4,1266.1,696.2,1302.3,651.6,1302.3z M596.5,1194.3v27.2c0,18.1,14.7,32.8,32.8,32.8h22.3c18.1,0,32.8-14.7,32.8-32.8v-27.2     H596.5z"/><path d="M1398.1,1302.3h-22.3c-44.6,0-80.8-36.3-80.8-80.8v-51.2c0-13.3,10.7-24,24-24h135.9c13.3,0,24,10.7,24,24v51.2     C1478.9,1266.1,1442.7,1302.3,1398.1,1302.3z M1343,1194.3v27.2c0,18.1,14.7,32.8,32.8,32.8h22.3c18.1,0,32.8-14.7,32.8-32.8     v-27.2H1343z"/></g></g></g><text x="0" y="1595" fill="#000000" font-size="5px" font-weight="bold" font-family="'Helvetica Neue', Helvetica, Arial-Unicode, Arial, Sans-serif">Created by Iconbunny</text><text x="0" y="1600" fill="#000000" font-size="5px" font-weight="bold" font-family="'Helvetica Neue', Helvetica, Arial-Unicode, Arial, Sans-serif">from the Noun Project</text></svg>