<svg xmlns="http://www.w3.org/2000/svg" xmlns:xlink="http://www.w3.org/1999/xlink" version="1.1" x="0px" y="0px" viewBox="0 0 48 60" style="enable-background:new 0 0 48 48;" xml:space="preserve"><style type="text/css">
	.st0{stroke:#000000;stroke-width:0.5;stroke-miterlimit:10;}
	.st1{fill:none;stroke:#000000;stroke-width:2;stroke-miterlimit:10;}
</style><g><path d="M46.8,40.1c-2.9-2.1-8.8-5.5-15.8-5.5h-5c-1.2-2.8-4.2-4.7-7.6-4.7H9.2c-0.5-2-2.3-3.5-4.5-3.5C2.1,26.4,0,28.5,0,31v11.5   c0,2.6,2.1,4.7,4.7,4.7c2.2,0,4-1.5,4.5-3.5h36.5c0.9,0,1.6-0.6,1.9-1.4C47.8,41.5,47.5,40.6,46.8,40.1z M4.7,45.2   C3.2,45.2,2,44,2,42.5V31c0-1.5,1.2-2.7,2.7-2.7c1.5,0,2.7,1.2,2.7,2.7v11.5C7.3,44,6.1,45.2,4.7,45.2z M9.3,41.7v-9.8h9   c2.2,0,4.3,1.1,5.4,2.7h-5.9c-0.6,0-1,0.4-1,1s0.4,1,1,1H31c6.5,0,12,3.2,14.7,5.1H9.3z"/><path d="M4.7,40.3c-0.6,0-1,0.4-1,1v1.5c0,0.6,0.4,1,1,1s1-0.4,1-1v-1.5C5.7,40.7,5.2,40.3,4.7,40.3z"/><path d="M18.6,28.7h23.2c3.4,0,6.2-2.8,6.2-6.2c0-0.6-0.4-1-1-1h-2.6v-0.7c0-6.6-4.5-12.2-10.8-13.7l0.3-2c0.4-3.6-2.6-4.4-3.7-4.4   s-4,0.9-3.7,4.4l0.4,2c-6.3,1.5-10.8,7.1-10.8,13.7v0.7h-2.6c-0.6,0-1,0.5-1,1C12.5,26,15.2,28.7,18.6,28.7z M31.9,4.9l-0.4,2   c-0.9-0.1-1.8-0.1-2.7,0l-0.4-2C28.2,2.2,32.2,2.1,31.9,4.9z M18.1,20.9c1-12,11.4-12.1,12-12.1c0.7,0,11.5,0.2,12.3,12.1v0.7H18.1   V20.9z M45.9,23.6c-0.4,1.8-2.1,3.2-4,3.2H18.6c-1.9,0-3.6-1.3-4-3.2H45.9z"/><path d="M30.2,11.1c-4.3,0-8.1,2.8-9.4,6.9c-0.2,0.5,0.1,1,0.7,1.3c0.6,0.2,1.1-0.2,1.3-0.7c1-3.3,4-5.5,7.4-5.5c0.6,0,1-0.4,1-1   S30.8,11.1,30.2,11.1z"/></g><text x="0" y="63" fill="#000000" font-size="5px" font-weight="bold" font-family="'Helvetica Neue', Helvetica, Arial-Unicode, Arial, Sans-serif">Created by Vectors Market</text><text x="0" y="68" fill="#000000" font-size="5px" font-weight="bold" font-family="'Helvetica Neue', Helvetica, Arial-Unicode, Arial, Sans-serif">from the Noun Project</text></svg>