<svg xmlns="http://www.w3.org/2000/svg" xmlns:xlink="http://www.w3.org/1999/xlink" version="1.1" x="0px" y="0px" viewBox="0 0 48 60" style="enable-background:new 0 0 48 48;" xml:space="preserve"><style type="text/css">
	.st0{stroke:#000000;stroke-width:0.5;stroke-miterlimit:10;}
	.st1{fill:none;stroke:#000000;stroke-width:2;stroke-miterlimit:10;}
</style><g><path d="M25.2,31.4l4.7-6.3c3.1-0.8,5.4-2.1,5.4-4.1c0-1.5-1.3-2.7-3.6-3.6v-3.5c0-0.8-0.4-1.5-1.1-1.9c0,0-0.1-0.1-0.1-0.1V9.3   c0-0.6-0.4-1-1-1h-4c-0.6,0-1,0.5-1,1v2.6c0,0.1,0,0.1-0.1,0.1c-0.7,0.4-1.1,1.1-1.1,1.9v2.2c-0.4,0-0.7,0-1.1,0l0.3-3.1   c0.1-0.6-0.4-1.1-1-1.1h-4.5c-0.6,0-1,0.5-1,1.1l0.4,4.1c-2.6,0.9-4,2.2-4,3.7c0,2,2.4,3.4,5.6,4.2l4.6,6.3l-5,6.7   c-0.3,0.4-0.2,1,0.2,1.4c0.5,0.4,1.2,0.1,1.4-0.2l4.6-6.2l4.6,6.2c0.4,0.6,1.2,0.3,1.4,0.2c0.4-0.3,0.5-1,0.2-1.4L25.2,31.4z    M25.5,13.9c0-0.1,0-0.1,0.1-0.1c0.7-0.4,1.1-1.1,1.1-1.9v-1.7h2v1.7c0,0.8,0.4,1.5,1.1,1.9c0,0,0.1,0.1,0.1,0.1v4.2v0.2   c0,0.6-0.5,1.1-1.1,1.1h-2c-0.6,0-1.1-0.5-1.1-1.1V13.9z M20.6,14l-0.5,5.3h-1.3L18.3,14H20.6z M14.6,21c0-0.4,0.6-1,2.2-1.7   l0.1,1.2c0,0.5,0.5,0.9,1,0.9H21c0.5,0,0.9-0.4,1-0.9l0.2-2.3c0.4,0,0.8,0,1.3-0.1v0.1c0,1.7,1.4,3.1,3.1,3.1h2   c1.3,0,2.4-0.8,2.9-2c1.3,0.5,1.8,1.1,1.8,1.5c0,0.9-3.3,2.8-9.4,2.8C18.1,23.7,14.6,22,14.6,21z M21,25.6c1,0.1,2,0.2,3,0.2   c1,0,2.1-0.1,3.1-0.2L24,29.7L21,25.6z"/><path d="M15.7,24.5H4.5c-0.4,0-0.8-0.3-0.9-0.7L2,14.1c-0.1-0.5-0.6-0.9-1.2-0.8c-0.5,0.1-0.9,0.6-0.8,1.2l1.7,9.6   c0.2,1.4,1.4,2.4,2.9,2.4h0.7l3.1,5.6l-3.4,6.1c-0.3,0.5-0.1,1.1,0.4,1.4c0.2,0.1,0.8,0.4,1.4-0.4l2.8-5l2.8,5   c0.2,0.3,0.5,0.7,1.4,0.4c0.5-0.2,0.7-0.9,0.4-1.4l-3.4-6.1l3.1-5.6h2c0.6,0,1-0.4,1-1S16.3,24.5,15.7,24.5z M9.5,30.1l-2-3.5h4   L9.5,30.1z"/><path d="M31.3,25.5c0,0.6,0.4,1,1,1h2l3.1,5.6L34,38.2c-0.3,0.5-0.1,1.2,0.4,1.4c0.9,0.3,1.2-0.1,1.4-0.4l2.8-5l2.8,5   c0.5,0.8,1.2,0.5,1.4,0.4c0.5-0.3,0.7-0.9,0.4-1.4l-3.4-6.1l3.1-5.6h0.7c1.4,0,2.6-1,2.9-2.4l1.7-9.6c0.1-0.5-0.3-1.1-0.8-1.2   c-0.6-0.1-1.1,0.3-1.2,0.8l-1.7,9.6c-0.1,0.4-0.4,0.7-0.9,0.7H32.3C31.7,24.5,31.3,25,31.3,25.5z M36.6,26.5h4l-2,3.5L36.6,26.5z"/></g><text x="0" y="63" fill="#000000" font-size="5px" font-weight="bold" font-family="'Helvetica Neue', Helvetica, Arial-Unicode, Arial, Sans-serif">Created by Vectors Market</text><text x="0" y="68" fill="#000000" font-size="5px" font-weight="bold" font-family="'Helvetica Neue', Helvetica, Arial-Unicode, Arial, Sans-serif">from the Noun Project</text></svg>