<svg xmlns="http://www.w3.org/2000/svg" xmlns:xlink="http://www.w3.org/1999/xlink" version="1.1" x="0px" y="0px" viewBox="0 0 48 60" style="enable-background:new 0 0 48 48;" xml:space="preserve"><path d="M47,11.5h-4.9c-0.1-3-0.7-5.9-1.9-8.6C39.8,1.7,38.7,1,37.6,1H10.7c0,0,0,0,0,0c-3.2,0-5.8,4.5-6,10.5H1c-0.6,0-1,0.4-1,1  s0.4,1,1,1h3.6c0,0,0,27.7,0,32.2c0,0.4,0.2,1.1,0.5,1.2c0,0,0,0,0,0c0.4,0.2,1-0.2,1.3-0.5l3.5-3.5l3.3,3.4c0.4,0.4,1,0.4,1.4,0  l3.6-3.5l3.3,3.4c0.4,0.4,1,0.4,1.4,0l3.6-3.5l3.3,3.4c0.4,0.4,1,0.4,1.4,0l3.6-3.4l3.3,3.7c1,0.9,1.8-0.1,1.7-0.7V22.8  c0.2-0.2,0.3-0.5,0.5-0.7c1.1-2.8,1.7-5.7,1.9-8.6H47c0.6,0,1-0.4,1-1S47.6,11.5,47,11.5z M10.6,3C10.6,3,10.6,3,10.6,3L10.6,3  c1.9,0,4,3.9,4,9.5c0,5.6-2.1,9.5-4,9.5c-1.8,0-3.8-3.4-4-8.5h1.3c0.2,2.2,1.1,4.3,2.7,4.3c1.9,0,2.7-2.8,2.7-5.3s-0.9-5.3-2.7-5.3  c-1.6,0-2.5,2.1-2.7,4.3H6.6C6.8,6.4,8.8,3,10.6,3z M10.3,11.5H9.9c0.1-1.2,0.5-2,0.7-2.3c0.3,0.4,0.7,1.5,0.7,3.3  c0,1.8-0.5,2.9-0.7,3.3c-0.2-0.3-0.6-1.1-0.7-2.3h0.4c0.6,0,1-0.4,1-1S10.9,11.5,10.3,11.5z M37.8,43.3l-2.2-2.5  c-0.2-0.2-0.4-0.3-0.7-0.3c-0.3,0-0.5,0.1-0.7,0.3l-3.6,3.5l-3.3-3.4c-0.4-0.4-1-0.4-1.4,0l-3.6,3.5l-3.3-3.4c-0.4-0.4-1-0.4-1.4,0  l-3.6,3.5l-3.3-3.4c-0.4-0.4-1.1-0.4-1.4,0l-2.6,2.7V21c1.1,1.8,2.5,2.9,4,2.9c0,0,0,0,0,0c0,0,27.1,0,27.2,0V43.3z M38.4,21.3  c-0.1,0.1-0.1,0.3-0.3,0.4c-0.2,0.1-0.4,0.2-0.6,0.2H14.1c1.6-2,2.6-5.5,2.6-9.5c0-4-1-7.4-2.6-9.5h23.5c0.4,0,0.7,0.2,0.8,0.6  c1.1,2.8,1.7,5.8,1.7,8.9S39.5,18.5,38.4,21.3z"/><text x="0" y="63" fill="#000000" font-size="5px" font-weight="bold" font-family="'Helvetica Neue', Helvetica, Arial-Unicode, Arial, Sans-serif">Created by Vectors Market</text><text x="0" y="68" fill="#000000" font-size="5px" font-weight="bold" font-family="'Helvetica Neue', Helvetica, Arial-Unicode, Arial, Sans-serif">from the Noun Project</text></svg>