<svg xmlns="http://www.w3.org/2000/svg" viewBox="0 0 64 80" x="0px" y="0px"><title>Travel 1</title><path d="M45.79,13.11A2,2,0,0,0,44,12a2,2,0,0,0-1.79,1.06l-13.4,25L19.68,23.91A2,2,0,0,0,18,23h0a2,2,0,0,0-1.68.92l-16,25a2,2,0,0,0-.07,2A2,2,0,0,0,2,52H62a2,2,0,0,0,1.7-1,2,2,0,0,0,.09-1.94ZM5.65,48,18,28.7l9.31,14.39a2,2,0,0,0,1.76.91,2,2,0,0,0,1.68-1.06L43.94,18.35,58.76,48Z"/><path d="M26,23a9,9,0,1,0-9-9A9,9,0,0,0,26,23ZM26,9a5,5,0,1,1-5,5A5,5,0,0,1,26,9Z"/><text x="0" y="79" fill="#000000" font-size="5px" font-weight="bold" font-family="'Helvetica Neue', Helvetica, Arial-Unicode, Arial, Sans-serif">Created by Lagot Design</text><text x="0" y="84" fill="#000000" font-size="5px" font-weight="bold" font-family="'Helvetica Neue', Helvetica, Arial-Unicode, Arial, Sans-serif">from the Noun Project</text></svg>